<?xml version="1.0" encoding="UTF-8" standalone="no"?>
<!-- Created with Inkscape (http://www.inkscape.org/) -->

<svg
   xmlns:dc="http://purl.org/dc/elements/1.1/"
   xmlns:cc="http://creativecommons.org/ns#"
   xmlns:rdf="http://www.w3.org/1999/02/22-rdf-syntax-ns#"
   xmlns:svg="http://www.w3.org/2000/svg"
   xmlns="http://www.w3.org/2000/svg"
   xmlns:sodipodi="http://sodipodi.sourceforge.net/DTD/sodipodi-0.dtd"
   xmlns:inkscape="http://www.inkscape.org/namespaces/inkscape"
   width="9.1440001mm"
   height="11.925mm"
   viewBox="0 0 9.1440001 11.925"
   version="1.1"
   id="svg1137"
   inkscape:version="0.92.3 (2405546, 2018-03-11)"
   sodipodi:docname="Export.svg">
  <defs
     id="defs1131" />
  <sodipodi:namedview
     id="base"
     pagecolor="#ffffff"
     bordercolor="#666666"
     borderopacity="1.0"
     inkscape:pageopacity="0.0"
     inkscape:pageshadow="2"
     inkscape:zoom="5.6"
     inkscape:cx="19.562801"
     inkscape:cy="27.757315"
     inkscape:document-units="mm"
     inkscape:current-layer="layer1"
     showgrid="false"
     inkscape:window-width="891"
     inkscape:window-height="1048"
     inkscape:window-x="958"
     inkscape:window-y="0"
     inkscape:window-maximized="0" />
  <metadata
     id="metadata1134">
    <rdf:RDF>
      <cc:Work
         rdf:about="">
        <dc:format>image/svg+xml</dc:format>
        <dc:type
           rdf:resource="http://purl.org/dc/dcmitype/StillImage" />
        <dc:title></dc:title>
      </cc:Work>
    </rdf:RDF>
  </metadata>
  <g
     inkscape:label="Calque 1"
     inkscape:groupmode="layer"
     id="layer1"
     transform="translate(0,-285.075)">
    <g
       id="g5196"
       transform="matrix(0,-0.72842287,0.96364485,0,-62.588039,340.15751)">
      <path
         sodipodi:nodetypes="ccccccccccc"
         inkscape:connector-curvature="0"
         d="M 70.114583,69.458333 63.49656,65.142979 c -0.286014,-0.186267 -0.432064,-0.07356 -0.324643,0.250295 l 0.838464,2.528359 h -4.7625 v 3.751791 h 4.7625 l -0.838464,2.528359 c -0.107421,0.324114 0.03863,0.436562 0.324643,0.250295 l 6.618023,-4.315354 c 0.28628,-0.186531 0.28628,-0.49186 0,-0.678391 z"
         id="path4795"
         style="fill:#008080;fill-opacity:1;stroke-width:0.26458332" />
      <path
         sodipodi:nodetypes="ccccccccccc"
         inkscape:connector-curvature="0"
         id="path4803"
         d="m 66.127045,66.124842 5.112351,3.333647 c 0.286279,0.186531 0.286279,0.491464 0,0.677995 l -5.112351,3.333647 -0.242877,0.731739 c -0.107423,0.324112 0.03851,0.43638 0.324528,0.250114 l 6.6182,-4.3155 c 0.286279,-0.186531 0.286279,-0.491464 0,-0.677995 l -6.6182,-4.315499 c -0.286015,-0.186267 -0.431951,-0.07374 -0.324528,0.250115 z"
         style="fill:#008080;fill-opacity:1;stroke-width:0.26458332" />
      <path
         style="fill:#008080;fill-opacity:1;stroke-width:0.26458332"
         d="m 68.704306,66.124842 5.112351,3.333647 c 0.286279,0.186531 0.286279,0.491464 0,0.677995 l -5.112351,3.333647 -0.242877,0.731739 c -0.107423,0.324112 0.03851,0.43638 0.324528,0.250114 l 6.6182,-4.3155 c 0.286279,-0.186531 0.286279,-0.491464 0,-0.677995 l -6.6182,-4.315499 c -0.286015,-0.186267 -0.431951,-0.07374 -0.324528,0.250115 z"
         id="path5191"
         inkscape:connector-curvature="0"
         sodipodi:nodetypes="ccccccccccc" />
    </g>
  </g>
</svg>
