<?xml version="1.0" encoding="utf-8"?>
<!-- Generator: Adobe Illustrator 16.0.0, SVG Export Plug-In . SVG Version: 6.00 Build 0)  -->
<!DOCTYPE svg PUBLIC "-//W3C//DTD SVG 1.1//EN" "http://www.w3.org/Graphics/SVG/1.1/DTD/svg11.dtd">
<svg version="1.1" id="Layer_1" xmlns="http://www.w3.org/2000/svg" xmlns:xlink="http://www.w3.org/1999/xlink" x="0px" y="0px"
	 width="271.795px" height="58.881px" viewBox="0 0 271.795 58.881" enable-background="new 0 0 271.795 58.881"
	 xml:space="preserve">
<path fill="#004E63" d="M0,17.466c0-2.739,0.553-5.137,1.66-7.191c1.106-2.056,2.608-3.754,4.505-5.098
	c1.896-1.344,4.109-2.344,6.639-3.004c2.529-0.658,5.216-0.988,8.061-0.988c3.477,0,6.836,0.395,10.077,1.186
	c3.241,0.79,6.072,1.871,8.496,3.24v13.436c-2.371-1.79-5.059-3.122-8.062-3.991c-3.003-0.869-6.112-1.277-9.326-1.225
	c-2.687,0.052-4.531,0.395-5.532,1.028c-1.002,0.631-1.502,1.475-1.502,2.528c0,1.213,0.712,2.201,2.134,2.964
	c1.423,0.765,3.202,1.515,5.335,2.253c2.134,0.737,4.438,1.541,6.915,2.41c2.476,0.87,4.783,2.015,6.916,3.439
	c2.134,1.422,3.913,3.215,5.335,5.374c1.422,2.16,2.134,4.874,2.134,8.14c0,3.269-0.58,5.994-1.739,8.181
	c-1.16,2.187-2.754,3.926-4.781,5.216c-2.03,1.293-4.387,2.201-7.075,2.728c-2.687,0.525-5.532,0.79-8.535,0.79
	c-4.005,0-7.812-0.436-11.42-1.304c-3.61-0.87-6.89-2.121-9.84-3.755V39.991c3.319,2.267,6.718,3.873,10.195,4.822
	c3.477,0.948,6.798,1.422,9.959,1.422c2.897,0,4.991-0.276,6.283-0.831c1.29-0.552,1.936-1.514,1.936-2.884
	c0-1.316-0.711-2.397-2.134-3.24c-1.423-0.842-3.2-1.646-5.335-2.411c-2.134-0.763-4.439-1.58-6.915-2.449
	c-2.478-0.869-4.782-2.016-6.916-3.438c-2.134-1.424-3.912-3.201-5.334-5.336C0.711,23.512,0,20.786,0,17.466"/>
<path fill="#004E63" d="M47.973,38.727c0-3.371,0.579-6.31,1.739-8.812c1.158-2.502,2.713-4.597,4.663-6.284
	c1.948-1.686,4.215-2.949,6.797-3.793c2.581-0.842,5.295-1.265,8.14-1.265c2.845,0,5.559,0.423,8.141,1.265
	c2.581,0.844,4.847,2.107,6.796,3.793c1.949,1.687,3.505,3.782,4.664,6.284c1.158,2.502,1.739,5.44,1.739,8.812
	c0,3.373-0.581,6.312-1.739,8.813c-1.159,2.502-2.715,4.597-4.664,6.282c-1.949,1.688-4.215,2.952-6.796,3.794
	c-2.582,0.842-5.296,1.265-8.141,1.265c-2.845,0-5.559-0.423-8.14-1.265c-2.582-0.842-4.849-2.106-6.797-3.794
	c-1.95-1.686-3.505-3.78-4.663-6.282C48.552,45.038,47.973,42.1,47.973,38.727 M76.821,38.727c0-1.054-0.133-2.08-0.396-3.082
	c-0.264-1-0.698-1.883-1.304-2.647s-1.383-1.383-2.331-1.856c-0.948-0.476-2.108-0.711-3.478-0.711c-1.37,0-2.542,0.236-3.516,0.711
	c-0.976,0.474-1.753,1.092-2.332,1.856c-0.581,0.765-1.002,1.647-1.265,2.647c-0.265,1.002-0.395,2.028-0.395,3.082
	c0,1.055,0.13,2.082,0.395,3.082c0.263,1.002,0.684,1.886,1.265,2.647c0.579,0.765,1.356,1.384,2.332,1.858
	c0.974,0.475,2.146,0.711,3.516,0.711c1.37,0,2.53-0.236,3.478-0.711c0.948-0.475,1.725-1.094,2.331-1.858
	c0.606-0.762,1.04-1.646,1.304-2.647C76.688,40.809,76.821,39.781,76.821,38.727"/>
<path fill="#004E63" d="M100.451,57.695V30.823h-6.243V19.758h6.243v-3.24c0-3.003,0.461-5.48,1.384-7.429
	c0.921-1.949,2.134-3.517,3.635-4.703c1.502-1.186,3.201-2.015,5.098-2.489c1.897-0.474,3.794-0.712,5.691-0.712
	c1.738,0,3.411,0.146,5.019,0.435c1.606,0.29,3.015,0.646,4.228,1.067v11.065c-0.739-0.422-1.621-0.777-2.648-1.067
	c-1.028-0.289-2.095-0.435-3.2-0.435c-1.53,0-2.874,0.356-4.031,1.067c-1.16,0.711-1.739,1.963-1.739,3.754v2.687h10.116v11.065
	h-10.116v26.872H100.451z"/>
<path fill="#004E63" d="M145.343,5.928v13.831h10.273v11.065h-10.273v12.328c0,3.11,1.659,4.663,4.979,4.663
	c1.105,0,2.133-0.065,3.082-0.198c0.948-0.129,1.947-0.381,3.002-0.75V57.3c-3.056,1.054-6.479,1.581-10.273,1.581
	c-1.845,0-3.623-0.212-5.335-0.632c-1.713-0.423-3.228-1.134-4.545-2.134c-1.317-1.001-2.37-2.333-3.161-3.992
	c-0.79-1.659-1.185-3.754-1.185-6.283V30.824H125.9V19.759h6.007V9.09L145.343,5.928z"/>
<rect x="162.333" fill="#004E63" width="13.437" height="57.695"/>
<path fill="#004E63" d="M219.792,46.869c0,0.895,0.263,1.514,0.79,1.855c0.525,0.344,1.132,0.514,1.818,0.514
	c0.524,0,1.027-0.078,1.502-0.236V57.3c-0.897,0.37-1.938,0.659-3.122,0.869c-1.186,0.21-2.411,0.316-3.676,0.316
	c-4.216,0-7.219-1.396-9.01-4.188c-1.845,1.423-3.833,2.543-5.967,3.358c-2.135,0.817-4.545,1.226-7.232,1.226
	c-1.846,0-3.556-0.264-5.138-0.79c-1.58-0.526-2.977-1.291-4.188-2.293c-1.213-1-2.161-2.225-2.846-3.675
	c-0.686-1.448-1.028-3.094-1.028-4.939c0-2.371,0.515-4.359,1.542-5.967s2.332-2.896,3.912-3.873
	c1.581-0.975,3.346-1.659,5.296-2.055c1.948-0.396,3.845-0.592,5.689-0.592c2.846,0,5.585,0.289,8.22,0.869v-1.344
	c0-1.371-0.646-2.502-1.937-3.398c-1.291-0.896-3.279-1.345-5.966-1.345c-2.529,0-4.914,0.304-7.154,0.909
	c-2.239,0.605-4.281,1.277-6.125,2.016V21.102c0.791-0.262,1.74-0.539,2.846-0.83c1.106-0.289,2.318-0.565,3.636-0.829
	c1.317-0.263,2.674-0.474,4.07-0.633c1.396-0.158,2.806-0.236,4.229-0.236c3.003,0,5.73,0.29,8.181,0.869
	c2.45,0.58,4.544,1.554,6.282,2.925c1.739,1.37,3.069,3.188,3.991,5.452c0.922,2.267,1.384,5.086,1.384,8.458V46.869z
	 M195.528,46.076c0,1.002,0.407,1.873,1.225,2.608c0.816,0.739,1.937,1.107,3.358,1.107c1.107,0,2.161-0.145,3.162-0.435
	c1.001-0.289,2.027-0.803,3.082-1.541V42.68c-0.58-0.211-1.305-0.382-2.173-0.514c-0.869-0.133-1.752-0.198-2.647-0.198
	c-1.581,0-2.978,0.304-4.189,0.907C196.132,43.482,195.528,44.55,195.528,46.076"/>
<path fill="#004E63" d="M242.157,2.372v20.469c1.159-1.211,2.66-2.225,4.505-3.043c1.843-0.817,4.109-1.225,6.797-1.225
	c3.161,0,5.901,0.593,8.22,1.779c2.317,1.185,4.228,2.727,5.729,4.623c1.502,1.897,2.608,4.058,3.32,6.481
	c0.711,2.424,1.066,4.849,1.066,7.271c0,2.479-0.355,4.914-1.066,7.312c-0.712,2.397-1.818,4.544-3.32,6.441
	c-1.502,1.896-3.412,3.438-5.729,4.623c-2.318,1.186-5.059,1.778-8.22,1.778c-3.426,0-6.192-0.66-8.299-1.976
	c-2.107-1.316-3.634-2.767-4.584-4.347v5.137h-11.855V2.372H242.157z M257.964,38.727c0-1.106-0.158-2.198-0.475-3.279
	c-0.316-1.08-0.803-2.055-1.462-2.926c-0.659-0.867-1.502-1.565-2.528-2.092c-1.028-0.526-2.254-0.791-3.676-0.791
	c-1.845,0-3.438,0.488-4.781,1.461c-1.344,0.976-2.307,2.069-2.885,3.28v8.694c0.578,1.213,1.541,2.305,2.885,3.279
	c1.344,0.977,2.937,1.461,4.781,1.461c1.422,0,2.647-0.262,3.676-0.789c1.026-0.526,1.869-1.225,2.528-2.094
	c0.659-0.871,1.146-1.845,1.462-2.924C257.806,40.928,257.964,39.833,257.964,38.727"/>
</svg>
