<?xml version="1.0" encoding="UTF-8" standalone="no"?>
<svg viewBox="0 0 820.0 582.0" xmlns="http://www.w3.org/2000/svg">
    <style>
        <![CDATA[
.sld-up .sld-arrow-down {visibility: hidden}
.sld-down .sld-arrow-up {visibility: hidden}
.sld-closed .sld-sw-open {visibility: hidden}
.sld-open .sld-sw-closed {visibility: hidden}
.sld-hidden-node {visibility: hidden}
polyline {fill: none}
.sld-top-feeder .sld-label {dominant-baseline: auto}
.sld-bottom-feeder .sld-label {dominant-baseline: hanging}
.sld-arrow-p .sld-label {dominant-baseline: middle}
.sld-arrow-q .sld-label {dominant-baseline: middle}
.sld-constant-color {stroke: lightgrey}
.sld-vl300to500 {stroke: #ff0000}
.sld-vl180to300 {stroke: #228b22}
.sld-vl120to180 {stroke: #01afaf}
.sld-vl70to120 {stroke: #cc5500}
.sld-vl50to70 {stroke: #a020f0}
.sld-vl30to50 {stroke: #ff8290}
.sld-vl0to30 {stroke: #abae28}.sld-feeder-disconnected {stroke: black}
.sld-feeder-connected-disconnected {stroke-dasharray: 3,3}
.sld-feeder-disconnected-connected {stroke: black; stroke-dasharray: 3,3}
.sld-constant-color {fill: none}
.sld-node.sld-constant-color {stroke: none; fill: black}
.sld-breaker.sld-constant-color {stroke: blue; fill: white}
.sld-disconnector.sld-constant-color {stroke: black}
.sld-label {fill: black; stroke: none;}
.sld-busbar-section {stroke-width: 3}
.sld-breaker {stroke-width: 2; fill:white}
.sld-disconnector {stroke-width: 3}
.sld-bus-connection {stroke-width: 4}
.sld-vsc {font-size: 7.43px}
.sld-grid {stroke: #003700; stroke-dasharray: 1,10}
.sld-arrow-p {fill:black}
.sld-arrow-q {fill:blue}
.sld-label {font: 8px "Verdana"}
.sld-graph-label {font: 12px "Verdana"}
.sld-flash {stroke: none; fill: black}
.sld-lock {stroke: none; fill: black}

]]>
    </style>
    <g>
        <g class="sld-busbar-section sld-constant-color sld-vl180to300" id="idD" transform="translate(52.5,252.0)">
            <line x1="0" x2="75.0" y1="0" y2="0"/>
            <text class="sld-label" id="D_NW_LABEL" x="-5.0" y="-5.0">E</text>
        </g>
        <g class="cell idEXTERN_32_0" id="idEXTERN_32_0">
            <g class="sld-node sld-constant-color sld-hidden-node sld-vl180to300" id="idINTERNAL_95_C_95_F" transform="translate(61.0,218.0)">
                <circle cx="4" cy="4" r="4"/>
            </g>
            <g class="sld-node sld-constant-color sld-hidden-node sld-vl180to300" id="idINTERNAL_95_C_95_CI_95_ONE" transform="translate(61.0,138.0)">
                <circle cx="4" cy="4" r="4"/>
            </g>
            <g class="sld-top-feeder sld-constant-color sld-vl180to300" id="idCI_95_ONE" transform="translate(65.0,80.0)">
                <text class="sld-label" id="CI_ONE_N_LABEL" x="-5.0" y="-5.0">CI</text>
            </g>
            <g class="sld-wire sld-constant-color sld-vl180to300" id="_95_C_95_D_95_F">
                <polyline points="65.0,252.0,65.0,252.0"/>
            </g>
            <g class="sld-wire sld-constant-color sld-vl180to300" id="_95_C_95_F_95_INTERNAL_95_C_95_F">
                <polyline points="65.0,252.0,65.0,222.0"/>
            </g>
            <g class="sld-wire sld-constant-color sld-vl180to300" id="_95_C_95_J_95_INTERNAL_95_C_95_F">
                <polyline points="65.0,192.0,65.0,222.0"/>
            </g>
            <g class="sld-wire sld-constant-color sld-vl180to300" id="_95_C_95_J_95_INTERNAL_95_C_95_CI_95_ONE">
                <polyline points="65.0,172.0,65.0,142.0"/>
            </g>
            <g class="sld-wire sld-constant-color sld-vl180to300" id="_95_C_95_INTERNAL_95_C_95_CI_95_ONE_95_CI_95_ONE">
                <polyline points="65.0,142.0,65.0,80.0"/>
            </g>
            <g class="sld-arrow-p sld-down" id="_95_C_95_INTERNAL_95_C_95_CI_95_ONE_95_CI_95_ONE_ARROW1" transform="translate(60.0,95.0)">
                <polygon class="sld-arrow-down" points="0,0 10,0 5,10"/>
                <polygon class="sld-arrow-up" points="5,0 10,10 0,10"/>
                <text class="sld-label" x="15.0" y="5.0">0</text>
            </g>
            <g class="sld-arrow-q sld-down" id="_95_C_95_INTERNAL_95_C_95_CI_95_ONE_95_CI_95_ONE_ARROW2" transform="translate(60.0,115.0)">
                <polygon class="sld-arrow-down" points="0,0 10,0 5,10"/>
                <polygon class="sld-arrow-up" points="5,0 10,10 0,10"/>
                <text class="sld-label" x="15.0" y="5.0">0</text>
            </g>
            <g class="sld-disconnector sld-constant-color sld-closed sld-vl180to300" id="idF" transform="translate(61.0,248.0)">
                <path class="sld-sw-closed" d="M0,0 8,8 M8,0 0,8"/>
                <path class="sld-sw-open" d="M8,0 0,8"/>
            </g>
            <g class="sld-breaker sld-constant-color sld-closed sld-vl180to300" id="idJ" transform="translate(55.0,172.0)">
                <path class="sld-sw-closed" d="M1,1 V19 H19 V1z M10,5 V15"/>
                <path class="sld-sw-open" d="M1,1 V19 H19 V1z M5,10 H15"/>
            </g>
        </g>
        <g class="cell idEXTERN_32_1" id="idEXTERN_32_1">
            <g class="sld-node sld-constant-color sld-hidden-node sld-vl180to300" id="idINTERNAL_95_C_95_H" transform="translate(111.0,278.0)">
                <circle cx="4" cy="4" r="4"/>
            </g>
            <g class="sld-node sld-constant-color sld-hidden-node sld-vl180to300" id="idINTERNAL_95_C_95_CJ_95_ONE" transform="translate(111.0,358.0)">
                <circle cx="4" cy="4" r="4"/>
            </g>
            <g class="sld-bottom-feeder sld-constant-color sld-vl180to300" id="idCJ_95_ONE" transform="translate(115.0,424.0)">
                <text class="sld-label" id="CJ_ONE_S_LABEL" x="-5.0" y="5.0">CJ</text>
            </g>
            <g class="sld-wire sld-constant-color sld-vl180to300" id="_95_C_95_D_95_H">
                <polyline points="115.0,252.0,115.0,252.0"/>
            </g>
            <g class="sld-wire sld-constant-color sld-vl180to300" id="_95_C_95_H_95_INTERNAL_95_C_95_H">
                <polyline points="115.0,252.0,115.0,282.0"/>
            </g>
            <g class="sld-wire sld-constant-color sld-vl180to300" id="_95_C_95_L_95_INTERNAL_95_C_95_H">
                <polyline points="115.0,312.0,115.0,282.0"/>
            </g>
            <g class="sld-wire sld-constant-color sld-vl180to300" id="_95_C_95_L_95_INTERNAL_95_C_95_CJ_95_ONE">
                <polyline points="115.0,332.0,115.0,362.0"/>
            </g>
            <g class="sld-wire sld-constant-color sld-vl180to300" id="_95_C_95_INTERNAL_95_C_95_CJ_95_ONE_95_CJ_95_ONE">
                <polyline points="115.0,362.0,115.0,424.0"/>
            </g>
            <g class="sld-arrow-q sld-down" id="_95_C_95_INTERNAL_95_C_95_CJ_95_ONE_95_CJ_95_ONE_ARROW2" transform="translate(110.0,399.0)">
                <polygon class="sld-arrow-down" points="0,0 10,0 5,10" transform="rotate(180.0,5.0,5.0)"/>
                <polygon class="sld-arrow-up" points="5,0 10,10 0,10" transform="rotate(180.0,5.0,5.0)"/>
                <text class="sld-label" x="15.0" y="5.0">0</text>
            </g>
            <g class="sld-arrow-p sld-down" id="_95_C_95_INTERNAL_95_C_95_CJ_95_ONE_95_CJ_95_ONE_ARROW1" transform="translate(110.0,379.0)">
                <polygon class="sld-arrow-down" points="0,0 10,0 5,10" transform="rotate(180.0,5.0,5.0)"/>
                <polygon class="sld-arrow-up" points="5,0 10,10 0,10" transform="rotate(180.0,5.0,5.0)"/>
                <text class="sld-label" x="15.0" y="5.0">0</text>
            </g>
            <g class="sld-disconnector sld-constant-color sld-closed sld-vl180to300" id="idH" transform="translate(111.0,248.0)">
                <path class="sld-sw-closed" d="M0,0 8,8 M8,0 0,8"/>
                <path class="sld-sw-open" d="M8,0 0,8"/>
            </g>
            <g class="sld-breaker sld-constant-color sld-closed sld-vl180to300" id="idL" transform="translate(105.0,312.0)">
                <path class="sld-sw-closed" d="M1,1 V19 H19 V1z M10,5 V15"/>
                <path class="sld-sw-open" d="M1,1 V19 H19 V1z M5,10 H15"/>
            </g>
        </g>
        <g class="sld-busbar-section sld-constant-color sld-vl180to300" id="idO" transform="translate(192.5,252.0)">
            <line x1="0" x2="575.0" y1="0" y2="0"/>
            <text class="sld-label" id="O_NW_LABEL" x="-5.0" y="-5.0">E</text>
        </g>
        <g class="sld-busbar-section sld-constant-color sld-vl180to300" id="idP" transform="translate(192.5,277.0)">
            <line x1="0" x2="575.0" y1="0" y2="0"/>
            <text class="sld-label" id="P_NW_LABEL" x="-5.0" y="-5.0">Q</text>
        </g>
        <g class="cell idINTERN_32_0" id="idINTERN_32_0">
            <g class="sld-node sld-constant-color sld-hidden-node sld-vl180to300" id="idINTERNAL_95_N_95_AH" transform="translate(251.0,208.0)">
                <circle cx="4" cy="4" r="4"/>
            </g>
            <g class="sld-node sld-constant-color sld-hidden-node sld-vl180to300" id="idINTERNAL_95_N_95_AJ" transform="translate(201.0,208.0)">
                <circle cx="4" cy="4" r="4"/>
            </g>
            <g class="sld-wire sld-constant-color sld-vl180to300" id="_95_N_95_AH_95_O">
                <polyline points="255.0,252.0,255.0,252.0"/>
            </g>
            <g class="sld-wire sld-constant-color sld-vl180to300" id="_95_N_95_AH_95_INTERNAL_95_N_95_AH">
                <polyline points="255.0,252.0,255.0,212.0"/>
            </g>
            <g class="sld-wire sld-constant-color sld-vl180to300" id="_95_N_95_BJ_95_INTERNAL_95_N_95_AH">
                <polyline points="240.0,212.0,255.0,212.0"/>
            </g>
            <g class="sld-wire sld-constant-color sld-vl180to300" id="_95_N_95_BJ_95_INTERNAL_95_N_95_AJ">
                <polyline points="220.0,212.0,205.0,212.0"/>
            </g>
            <g class="sld-wire sld-constant-color sld-vl180to300" id="_95_N_95_AJ_95_INTERNAL_95_N_95_AJ">
                <polyline points="205.0,277.0,205.0,212.0"/>
            </g>
            <g class="sld-wire sld-constant-color sld-vl180to300" id="_95_N_95_P_95_AJ">
                <polyline points="205.0,277.0,205.0,277.0"/>
            </g>
            <g class="sld-disconnector sld-constant-color sld-closed sld-vl180to300" id="idAH" transform="translate(251.0,248.0)">
                <path class="sld-sw-closed" d="M0,0 8,8 M8,0 0,8"/>
                <path class="sld-sw-open" d="M8,0 0,8"/>
            </g>
            <g class="sld-breaker sld-constant-color sld-closed sld-vl180to300" id="idBJ" transform="translate(220.0,202.0)">
                <path class="sld-sw-closed" d="M1,1 V19 H19 V1z M10,5 V15" transform="rotate(90.0,10.0,10.0)"/>
                <path class="sld-sw-open" d="M1,1 V19 H19 V1z M5,10 H15" transform="rotate(90.0,10.0,10.0)"/>
            </g>
            <g class="sld-disconnector sld-constant-color sld-closed sld-vl180to300" id="idAJ" transform="translate(201.0,273.0)">
                <path class="sld-sw-closed" d="M0,0 8,8 M8,0 0,8"/>
                <path class="sld-sw-open" d="M8,0 0,8"/>
            </g>
        </g>
        <g class="cell idEXTERN_32_1" id="idEXTERN_32_1">
            <g class="sld-node sld-constant-color sld-hidden-node sld-vl180to300" id="idINTERNAL_95_N_95_19" transform="translate(551.0,218.0)">
                <circle cx="4" cy="4" r="4"/>
            </g>
            <g class="sld-node sld-constant-color sld-hidden-node sld-vl180to300" id="idINTERNAL_95_N_95_CG" transform="translate(551.0,138.0)">
                <circle cx="4" cy="4" r="4"/>
            </g>
            <g class="sld-load sld-top-feeder sld-constant-color sld-vl180to300" id="idCG" transform="translate(547.0,75.5)">
                <rect height="9" width="16"/>
                <line x1="0" x2="16" y1="0" y2="9"/>
                <line x1="16" x2="0" y1="0" y2="9"/>
                <text class="sld-label" id="CG_N_LABEL" x="-5.0" y="-5.0">CG</text>
            </g>
            <g class="sld-wire sld-constant-color sld-vl180to300" id="_95_N_95_O_95_R">
                <polyline points="555.0,252.0,555.0,252.0"/>
            </g>
            <g class="sld-wire sld-constant-color sld-vl180to300" id="_95_N_95_R_95_INTERNAL_95_N_95_19">
                <polyline points="555.0,252.0,555.0,222.0"/>
            </g>
            <g class="sld-wire sld-constant-color sld-vl180to300" id="_95_N_95_AL_95_INTERNAL_95_N_95_19">
                <polyline points="555.0,277.0,555.0,222.0"/>
            </g>
            <g class="sld-wire sld-constant-color sld-vl180to300" id="_95_N_95_INTERNAL_95_N_95_19_95_BX">
                <polyline points="555.0,222.0,555.0,192.0"/>
            </g>
            <g class="sld-wire sld-constant-color sld-vl180to300" id="_95_N_95_P_95_AL">
                <polyline points="555.0,277.0,555.0,277.0"/>
            </g>
            <g class="sld-wire sld-constant-color sld-vl180to300" id="_95_N_95_BX_95_INTERNAL_95_N_95_CG">
                <polyline points="555.0,172.0,555.0,142.0"/>
            </g>
            <g class="sld-wire sld-constant-color sld-vl180to300" id="_95_N_95_INTERNAL_95_N_95_CG_95_CG">
                <polyline points="555.0,142.0,555.0,84.5"/>
            </g>
            <g class="sld-arrow-p sld-up" id="_95_N_95_INTERNAL_95_N_95_CG_95_CG_ARROW1" transform="translate(550.0,98.25)">
                <polygon class="sld-arrow-down" points="0,0 10,0 5,10"/>
                <polygon class="sld-arrow-up" points="5,0 10,10 0,10"/>
                <text class="sld-label" x="15.0" y="5.0">90</text>
            </g>
            <g class="sld-arrow-q sld-down" id="_95_N_95_INTERNAL_95_N_95_CG_95_CG_ARROW2" transform="translate(550.0,118.25)">
                <polygon class="sld-arrow-down" points="0,0 10,0 5,10"/>
                <polygon class="sld-arrow-up" points="5,0 10,10 0,10"/>
                <text class="sld-label" x="15.0" y="5.0">-52</text>
            </g>
            <g class="sld-disconnector sld-constant-color sld-open sld-vl180to300" id="idR" transform="translate(551.0,248.0)">
                <path class="sld-sw-closed" d="M0,0 8,8 M8,0 0,8"/>
                <path class="sld-sw-open" d="M8,0 0,8"/>
            </g>
            <g class="sld-disconnector sld-constant-color sld-closed sld-vl180to300" id="idAL" transform="translate(551.0,273.0)">
                <path class="sld-sw-closed" d="M0,0 8,8 M8,0 0,8"/>
                <path class="sld-sw-open" d="M8,0 0,8"/>
            </g>
            <g class="sld-breaker sld-constant-color sld-closed sld-vl180to300" id="idBX" transform="translate(545.0,172.0)">
                <path class="sld-sw-closed" d="M1,1 V19 H19 V1z M10,5 V15"/>
                <path class="sld-sw-open" d="M1,1 V19 H19 V1z M5,10 H15"/>
            </g>
        </g>
        <g class="cell idEXTERN_32_2" id="idEXTERN_32_2">
            <g class="sld-node sld-constant-color sld-hidden-node sld-vl180to300" id="idINTERNAL_95_N_95_17" transform="translate(601.0,303.0)">
                <circle cx="4" cy="4" r="4"/>
            </g>
            <g class="sld-node sld-constant-color sld-hidden-node sld-vl180to300" id="idINTERNAL_95_N_95_CF" transform="translate(601.0,411.0)">
                <circle cx="4" cy="4" r="4"/>
            </g>
            <g class="sld-load sld-bottom-feeder sld-constant-color sld-vl180to300" id="idCF" transform="translate(597.0,472.5)">
                <rect height="9" width="16"/>
                <line x1="0" x2="16" y1="0" y2="9"/>
                <line x1="16" x2="0" y1="0" y2="9"/>
                <text class="sld-label" id="CF_S_LABEL" x="-5.0" y="14.0">CF</text>
            </g>
            <g class="sld-wire sld-constant-color sld-vl180to300" id="_95_N_95_O_95_T">
                <polyline points="605.0,252.0,605.0,252.0"/>
            </g>
            <g class="sld-wire sld-constant-color sld-vl180to300" id="_95_N_95_T_95_INTERNAL_95_N_95_17">
                <polyline points="605.0,252.0,605.0,307.0"/>
            </g>
            <g class="sld-wire sld-constant-color sld-vl180to300" id="_95_N_95_AN_95_INTERNAL_95_N_95_17">
                <polyline points="605.0,277.0,605.0,307.0"/>
            </g>
            <g class="sld-wire sld-constant-color sld-vl180to300" id="_95_N_95_INTERNAL_95_N_95_17_95_BV">
                <polyline points="605.0,307.0,605.0,351.0"/>
            </g>
            <g class="sld-wire sld-constant-color sld-vl180to300" id="_95_N_95_P_95_AN">
                <polyline points="605.0,277.0,605.0,277.0"/>
            </g>
            <g class="sld-wire sld-constant-color sld-vl180to300" id="_95_N_95_BV_95_INTERNAL_95_N_95_CF">
                <polyline points="605.0,371.0,605.0,415.0"/>
            </g>
            <g class="sld-wire sld-constant-color sld-vl180to300" id="_95_N_95_INTERNAL_95_N_95_CF_95_CF">
                <polyline points="605.0,415.0,605.0,472.5"/>
            </g>
            <g class="sld-arrow-q sld-down" id="_95_N_95_INTERNAL_95_N_95_CF_95_CF_ARROW2" transform="translate(600.0,448.75)">
                <polygon class="sld-arrow-down" points="0,0 10,0 5,10" transform="rotate(180.0,5.0,5.0)"/>
                <polygon class="sld-arrow-up" points="5,0 10,10 0,10" transform="rotate(180.0,5.0,5.0)"/>
                <text class="sld-label" x="15.0" y="5.0">-24</text>
            </g>
            <g class="sld-arrow-p sld-up" id="_95_N_95_INTERNAL_95_N_95_CF_95_CF_ARROW1" transform="translate(600.0,428.75)">
                <polygon class="sld-arrow-down" points="0,0 10,0 5,10" transform="rotate(180.0,5.0,5.0)"/>
                <polygon class="sld-arrow-up" points="5,0 10,10 0,10" transform="rotate(180.0,5.0,5.0)"/>
                <text class="sld-label" x="15.0" y="5.0">8</text>
            </g>
            <g class="sld-disconnector sld-constant-color sld-open sld-vl180to300" id="idT" transform="translate(601.0,248.0)">
                <path class="sld-sw-closed" d="M0,0 8,8 M8,0 0,8"/>
                <path class="sld-sw-open" d="M8,0 0,8"/>
            </g>
            <g class="sld-disconnector sld-constant-color sld-closed sld-vl180to300" id="idAN" transform="translate(601.0,273.0)">
                <path class="sld-sw-closed" d="M0,0 8,8 M8,0 0,8"/>
                <path class="sld-sw-open" d="M8,0 0,8"/>
            </g>
            <g class="sld-breaker sld-constant-color sld-closed sld-vl180to300" id="idBV" transform="translate(595.0,351.0)">
                <path class="sld-sw-closed" d="M1,1 V19 H19 V1z M10,5 V15"/>
                <path class="sld-sw-open" d="M1,1 V19 H19 V1z M5,10 H15"/>
            </g>
        </g>
        <g class="cell idEXTERN_32_3" id="idEXTERN_32_3">
            <g class="sld-node sld-constant-color sld-hidden-node sld-vl180to300" id="idINTERNAL_95_N_95_21" transform="translate(651.0,218.0)">
                <circle cx="4" cy="4" r="4"/>
            </g>
            <g class="sld-node sld-constant-color sld-hidden-node sld-vl180to300" id="idINTERNAL_95_N_95_CH" transform="translate(651.0,138.0)">
                <circle cx="4" cy="4" r="4"/>
            </g>
            <g class="sld-load sld-top-feeder sld-constant-color sld-vl180to300" id="idCH" transform="translate(647.0,75.5)">
                <rect height="9" width="16"/>
                <line x1="0" x2="16" y1="0" y2="9"/>
                <line x1="16" x2="0" y1="0" y2="9"/>
                <text class="sld-label" id="CH_N_LABEL" x="-5.0" y="-5.0">CH</text>
            </g>
            <g class="sld-wire sld-constant-color sld-vl180to300" id="_95_N_95_O_95_V">
                <polyline points="655.0,252.0,655.0,252.0"/>
            </g>
            <g class="sld-wire sld-constant-color sld-vl180to300" id="_95_N_95_V_95_INTERNAL_95_N_95_21">
                <polyline points="655.0,252.0,655.0,222.0"/>
            </g>
            <g class="sld-wire sld-constant-color sld-vl180to300" id="_95_N_95_AP_95_INTERNAL_95_N_95_21">
                <polyline points="655.0,277.0,655.0,222.0"/>
            </g>
            <g class="sld-wire sld-constant-color sld-vl180to300" id="_95_N_95_INTERNAL_95_N_95_21_95_BZ">
                <polyline points="655.0,222.0,655.0,192.0"/>
            </g>
            <g class="sld-wire sld-constant-color sld-vl180to300" id="_95_N_95_P_95_AP">
                <polyline points="655.0,277.0,655.0,277.0"/>
            </g>
            <g class="sld-wire sld-constant-color sld-vl180to300" id="_95_N_95_BZ_95_INTERNAL_95_N_95_CH">
                <polyline points="655.0,172.0,655.0,142.0"/>
            </g>
            <g class="sld-wire sld-constant-color sld-vl180to300" id="_95_N_95_INTERNAL_95_N_95_CH_95_CH">
                <polyline points="655.0,142.0,655.0,84.5"/>
            </g>
            <g class="sld-arrow-p sld-down" id="_95_N_95_INTERNAL_95_N_95_CH_95_CH_ARROW1" transform="translate(650.0,98.25)">
                <polygon class="sld-arrow-down" points="0,0 10,0 5,10"/>
                <polygon class="sld-arrow-up" points="5,0 10,10 0,10"/>
                <text class="sld-label" x="15.0" y="5.0">-5</text>
            </g>
            <g class="sld-arrow-q sld-up" id="_95_N_95_INTERNAL_95_N_95_CH_95_CH_ARROW2" transform="translate(650.0,118.25)">
                <polygon class="sld-arrow-down" points="0,0 10,0 5,10"/>
                <polygon class="sld-arrow-up" points="5,0 10,10 0,10"/>
                <text class="sld-label" x="15.0" y="5.0">5</text>
            </g>
            <g class="sld-disconnector sld-constant-color sld-open sld-vl180to300" id="idV" transform="translate(651.0,248.0)">
                <path class="sld-sw-closed" d="M0,0 8,8 M8,0 0,8"/>
                <path class="sld-sw-open" d="M8,0 0,8"/>
            </g>
            <g class="sld-disconnector sld-constant-color sld-closed sld-vl180to300" id="idAP" transform="translate(651.0,273.0)">
                <path class="sld-sw-closed" d="M0,0 8,8 M8,0 0,8"/>
                <path class="sld-sw-open" d="M8,0 0,8"/>
            </g>
            <g class="sld-breaker sld-constant-color sld-closed sld-vl180to300" id="idBZ" transform="translate(645.0,172.0)">
                <path class="sld-sw-closed" d="M1,1 V19 H19 V1z M10,5 V15"/>
                <path class="sld-sw-open" d="M1,1 V19 H19 V1z M5,10 H15"/>
            </g>
        </g>
        <g class="cell idEXTERN_32_4" id="idEXTERN_32_4">
            <g class="sld-node sld-constant-color sld-hidden-node sld-vl180to300" id="idINTERNAL_95_N_95_11" transform="translate(701.0,303.0)">
                <circle cx="4" cy="4" r="4"/>
            </g>
            <g class="sld-node sld-constant-color sld-hidden-node sld-vl180to300" id="idINTERNAL_95_N_95_CB" transform="translate(701.0,411.0)">
                <circle cx="4" cy="4" r="4"/>
            </g>
            <g class="sld-generator sld-bottom-feeder sld-constant-color sld-vl180to300" id="idCB" transform="translate(699.0,471.0)">
                <circle cx="6" cy="6" r="6"/>
                <path d="M6,6 A 6 40 0 0 0 2,6"/>
                <path d="M6,6 A 6 40 0 0 0 10,6"/>
                <text class="sld-label" id="CB_S_LABEL" x="-5.0" y="17.0">CB</text>
            </g>
            <g class="sld-wire sld-constant-color sld-vl180to300" id="_95_N_95_O_95_X">
                <polyline points="705.0,252.0,705.0,252.0"/>
            </g>
            <g class="sld-wire sld-constant-color sld-vl180to300" id="_95_N_95_X_95_INTERNAL_95_N_95_11">
                <polyline points="705.0,252.0,705.0,307.0"/>
            </g>
            <g class="sld-wire sld-constant-color sld-vl180to300" id="_95_N_95_AR_95_INTERNAL_95_N_95_11">
                <polyline points="705.0,277.0,705.0,307.0"/>
            </g>
            <g class="sld-wire sld-constant-color sld-vl180to300" id="_95_N_95_INTERNAL_95_N_95_11_95_BP">
                <polyline points="705.0,307.0,705.0,351.0"/>
            </g>
            <g class="sld-wire sld-constant-color sld-vl180to300" id="_95_N_95_P_95_AR">
                <polyline points="705.0,277.0,705.0,277.0"/>
            </g>
            <g class="sld-wire sld-constant-color sld-vl180to300" id="_95_N_95_BP_95_INTERNAL_95_N_95_CB">
                <polyline points="705.0,371.0,705.0,415.0"/>
            </g>
            <g class="sld-wire sld-constant-color sld-vl180to300" id="_95_N_95_INTERNAL_95_N_95_CB_95_CB">
                <polyline points="705.0,415.0,705.0,471.0"/>
            </g>
            <g class="sld-arrow-q sld-down" id="_95_N_95_INTERNAL_95_N_95_CB_95_CB_ARROW2" transform="translate(700.0,448.0)">
                <polygon class="sld-arrow-down" points="0,0 10,0 5,10" transform="rotate(180.0,5.0,5.0)"/>
                <polygon class="sld-arrow-up" points="5,0 10,10 0,10" transform="rotate(180.0,5.0,5.0)"/>
                <text class="sld-label" x="15.0" y="5.0">0</text>
            </g>
            <g class="sld-arrow-p sld-down" id="_95_N_95_INTERNAL_95_N_95_CB_95_CB_ARROW1" transform="translate(700.0,428.0)">
                <polygon class="sld-arrow-down" points="0,0 10,0 5,10" transform="rotate(180.0,5.0,5.0)"/>
                <polygon class="sld-arrow-up" points="5,0 10,10 0,10" transform="rotate(180.0,5.0,5.0)"/>
                <text class="sld-label" x="15.0" y="5.0">0</text>
            </g>
            <g class="sld-disconnector sld-constant-color sld-open sld-vl180to300" id="idX" transform="translate(701.0,248.0)">
                <path class="sld-sw-closed" d="M0,0 8,8 M8,0 0,8"/>
                <path class="sld-sw-open" d="M8,0 0,8"/>
            </g>
            <g class="sld-disconnector sld-constant-color sld-open sld-vl180to300" id="idAR" transform="translate(701.0,273.0)">
                <path class="sld-sw-closed" d="M0,0 8,8 M8,0 0,8"/>
                <path class="sld-sw-open" d="M8,0 0,8"/>
            </g>
            <g class="sld-breaker sld-constant-color sld-open sld-vl180to300" id="idBP" transform="translate(695.0,351.0)">
                <path class="sld-sw-closed" d="M1,1 V19 H19 V1z M10,5 V15"/>
                <path class="sld-sw-open" d="M1,1 V19 H19 V1z M5,10 H15"/>
            </g>
        </g>
        <g class="cell idEXTERN_32_5" id="idEXTERN_32_5">
            <g class="sld-node sld-constant-color sld-hidden-node sld-vl180to300" id="idINTERNAL_95_N_95_13" transform="translate(751.0,218.0)">
                <circle cx="4" cy="4" r="4"/>
            </g>
            <g class="sld-node sld-constant-color sld-hidden-node sld-vl180to300" id="idINTERNAL_95_N_95_CC" transform="translate(751.0,138.0)">
                <circle cx="4" cy="4" r="4"/>
            </g>
            <g class="sld-generator sld-top-feeder sld-constant-color sld-vl180to300" id="idCC" transform="translate(749.0,74.0)">
                <circle cx="6" cy="6" r="6"/>
                <path d="M6,6 A 6 40 0 0 0 2,6"/>
                <path d="M6,6 A 6 40 0 0 0 10,6"/>
                <text class="sld-label" id="CC_N_LABEL" x="-5.0" y="-5.0">CC</text>
            </g>
            <g class="sld-wire sld-constant-color sld-vl180to300" id="_95_N_95_O_95_Z">
                <polyline points="755.0,252.0,755.0,252.0"/>
            </g>
            <g class="sld-wire sld-constant-color sld-vl180to300" id="_95_N_95_Z_95_INTERNAL_95_N_95_13">
                <polyline points="755.0,252.0,755.0,222.0"/>
            </g>
            <g class="sld-wire sld-constant-color sld-vl180to300" id="_95_N_95_AT_95_INTERNAL_95_N_95_13">
                <polyline points="755.0,277.0,755.0,222.0"/>
            </g>
            <g class="sld-wire sld-constant-color sld-vl180to300" id="_95_N_95_INTERNAL_95_N_95_13_95_BR">
                <polyline points="755.0,222.0,755.0,192.0"/>
            </g>
            <g class="sld-wire sld-constant-color sld-vl180to300" id="_95_N_95_P_95_AT">
                <polyline points="755.0,277.0,755.0,277.0"/>
            </g>
            <g class="sld-wire sld-constant-color sld-vl180to300" id="_95_N_95_BR_95_INTERNAL_95_N_95_CC">
                <polyline points="755.0,172.0,755.0,142.0"/>
            </g>
            <g class="sld-wire sld-constant-color sld-vl180to300" id="_95_N_95_INTERNAL_95_N_95_CC_95_CC">
                <polyline points="755.0,142.0,755.0,86.0"/>
            </g>
            <g class="sld-arrow-p sld-down" id="_95_N_95_INTERNAL_95_N_95_CC_95_CC_ARROW1" transform="translate(750.0,99.0)">
                <polygon class="sld-arrow-down" points="0,0 10,0 5,10"/>
                <polygon class="sld-arrow-up" points="5,0 10,10 0,10"/>
                <text class="sld-label" x="15.0" y="5.0">0</text>
            </g>
            <g class="sld-arrow-q sld-down" id="_95_N_95_INTERNAL_95_N_95_CC_95_CC_ARROW2" transform="translate(750.0,119.0)">
                <polygon class="sld-arrow-down" points="0,0 10,0 5,10"/>
                <polygon class="sld-arrow-up" points="5,0 10,10 0,10"/>
                <text class="sld-label" x="15.0" y="5.0">0</text>
            </g>
            <g class="sld-disconnector sld-constant-color sld-open sld-vl180to300" id="idZ" transform="translate(751.0,248.0)">
                <path class="sld-sw-closed" d="M0,0 8,8 M8,0 0,8"/>
                <path class="sld-sw-open" d="M8,0 0,8"/>
            </g>
            <g class="sld-disconnector sld-constant-color sld-open sld-vl180to300" id="idAT" transform="translate(751.0,273.0)">
                <path class="sld-sw-closed" d="M0,0 8,8 M8,0 0,8"/>
                <path class="sld-sw-open" d="M8,0 0,8"/>
            </g>
            <g class="sld-breaker sld-constant-color sld-open sld-vl180to300" id="idBR" transform="translate(745.0,172.0)">
                <path class="sld-sw-closed" d="M1,1 V19 H19 V1z M10,5 V15"/>
                <path class="sld-sw-open" d="M1,1 V19 H19 V1z M5,10 H15"/>
            </g>
        </g>
        <g class="cell idEXTERN_32_6" id="idEXTERN_32_6">
            <g class="sld-node sld-constant-color sld-hidden-node sld-vl180to300" id="idINTERNAL_95_N_95_15" transform="translate(301.0,218.0)">
                <circle cx="4" cy="4" r="4"/>
            </g>
            <g class="sld-node sld-constant-color sld-hidden-node sld-vl180to300" id="idINTERNAL_95_N_95_CD" transform="translate(301.0,138.0)">
                <circle cx="4" cy="4" r="4"/>
            </g>
            <g class="sld-generator sld-top-feeder sld-constant-color sld-vl180to300" id="idCD" transform="translate(299.0,74.0)">
                <circle cx="6" cy="6" r="6"/>
                <path d="M6,6 A 6 40 0 0 0 2,6"/>
                <path d="M6,6 A 6 40 0 0 0 10,6"/>
                <text class="sld-label" id="CD_N_LABEL" x="-5.0" y="-5.0">CD</text>
            </g>
            <g class="sld-wire sld-constant-color sld-vl180to300" id="_95_N_95_O_95_AB">
                <polyline points="305.0,252.0,305.0,252.0"/>
            </g>
            <g class="sld-wire sld-constant-color sld-vl180to300" id="_95_N_95_AB_95_INTERNAL_95_N_95_15">
                <polyline points="305.0,252.0,305.0,222.0"/>
            </g>
            <g class="sld-wire sld-constant-color sld-vl180to300" id="_95_N_95_AV_95_INTERNAL_95_N_95_15">
                <polyline points="305.0,277.0,305.0,222.0"/>
            </g>
            <g class="sld-wire sld-constant-color sld-vl180to300" id="_95_N_95_INTERNAL_95_N_95_15_95_BT">
                <polyline points="305.0,222.0,305.0,192.0"/>
            </g>
            <g class="sld-wire sld-constant-color sld-vl180to300" id="_95_N_95_P_95_AV">
                <polyline points="305.0,277.0,305.0,277.0"/>
            </g>
            <g class="sld-wire sld-constant-color sld-vl180to300" id="_95_N_95_BT_95_INTERNAL_95_N_95_CD">
                <polyline points="305.0,172.0,305.0,142.0"/>
            </g>
            <g class="sld-wire sld-constant-color sld-vl180to300" id="_95_N_95_INTERNAL_95_N_95_CD_95_CD">
                <polyline points="305.0,142.0,305.0,86.0"/>
            </g>
            <g class="sld-arrow-p sld-down" id="_95_N_95_INTERNAL_95_N_95_CD_95_CD_ARROW1" transform="translate(300.0,99.0)">
                <polygon class="sld-arrow-down" points="0,0 10,0 5,10"/>
                <polygon class="sld-arrow-up" points="5,0 10,10 0,10"/>
                <text class="sld-label" x="15.0" y="5.0">-22</text>
            </g>
            <g class="sld-arrow-q sld-up" id="_95_N_95_INTERNAL_95_N_95_CD_95_CD_ARROW2" transform="translate(300.0,119.0)">
                <polygon class="sld-arrow-down" points="0,0 10,0 5,10"/>
                <polygon class="sld-arrow-up" points="5,0 10,10 0,10"/>
                <text class="sld-label" x="15.0" y="5.0">21</text>
            </g>
            <g class="sld-disconnector sld-constant-color sld-closed sld-vl180to300" id="idAB" transform="translate(301.0,248.0)">
                <path class="sld-sw-closed" d="M0,0 8,8 M8,0 0,8"/>
                <path class="sld-sw-open" d="M8,0 0,8"/>
            </g>
            <g class="sld-disconnector sld-constant-color sld-open sld-vl180to300" id="idAV" transform="translate(301.0,273.0)">
                <path class="sld-sw-closed" d="M0,0 8,8 M8,0 0,8"/>
                <path class="sld-sw-open" d="M8,0 0,8"/>
            </g>
            <g class="sld-breaker sld-constant-color sld-closed sld-vl180to300" id="idBT" transform="translate(295.0,172.0)">
                <path class="sld-sw-closed" d="M1,1 V19 H19 V1z M10,5 V15"/>
                <path class="sld-sw-open" d="M1,1 V19 H19 V1z M5,10 H15"/>
            </g>
        </g>
        <g class="cell idEXTERN_32_8" id="idEXTERN_32_8">
            <g class="sld-node sld-constant-color sld-hidden-node sld-vl180to300" id="idINTERNAL_95_N_95_8" transform="translate(351.0,303.0)">
                <circle cx="4" cy="4" r="4"/>
            </g>
            <g class="sld-node sld-constant-color sld-hidden-node sld-vl180to300" id="idINTERNAL_95_N_95_CI_95_TWO" transform="translate(351.0,411.0)">
                <circle cx="4" cy="4" r="4"/>
            </g>
            <g class="sld-bottom-feeder sld-constant-color sld-vl180to300" id="idCI_95_TWO" transform="translate(355.0,477.0)">
                <text class="sld-label" id="CI_TWO_S_LABEL" x="-5.0" y="5.0">CI</text>
            </g>
            <g class="sld-node sld-constant-color sld-hidden-node sld-vl180to300" id="idINTERNAL_95_N_95_9" transform="translate(351.0,357.0)">
                <circle cx="4" cy="4" r="4"/>
            </g>
            <g class="sld-wire sld-constant-color sld-vl180to300" id="_95_N_95_INTERNAL_95_N_95_8_95_BL">
                <polyline points="355.0,307.0,355.0,324.0"/>
            </g>
            <g class="sld-wire sld-constant-color sld-vl180to300" id="_95_N_95_BL_95_INTERNAL_95_N_95_9">
                <polyline points="355.0,344.0,355.0,361.0"/>
            </g>
            <g class="sld-wire sld-constant-color sld-vl180to300" id="_95_N_95_AD_95_INTERNAL_95_N_95_8">
                <polyline points="355.0,252.0,355.0,307.0"/>
            </g>
            <g class="sld-wire sld-constant-color sld-vl180to300" id="_95_N_95_AX_95_INTERNAL_95_N_95_8">
                <polyline points="355.0,277.0,355.0,307.0"/>
            </g>
            <g class="sld-wire sld-constant-color sld-vl180to300" id="_95_N_95_O_95_AD">
                <polyline points="355.0,252.0,355.0,252.0"/>
            </g>
            <g class="sld-wire sld-constant-color sld-vl180to300" id="_95_N_95_P_95_AX">
                <polyline points="355.0,277.0,355.0,277.0"/>
            </g>
            <g class="sld-wire sld-constant-color sld-vl180to300" id="_95_N_95_INTERNAL_95_N_95_9_95_BN">
                <polyline points="355.0,361.0,355.0,388.0"/>
            </g>
            <g class="sld-wire sld-constant-color sld-vl180to300" id="_95_N_95_BN_95_INTERNAL_95_N_95_CI_95_TWO">
                <polyline points="355.0,388.0,355.0,415.0"/>
            </g>
            <g class="sld-wire sld-constant-color sld-vl180to300" id="_95_N_95_INTERNAL_95_N_95_CI_95_TWO_95_CI_95_TWO">
                <polyline points="355.0,415.0,355.0,477.0"/>
            </g>
            <g class="sld-arrow-q sld-down" id="_95_N_95_INTERNAL_95_N_95_CI_95_TWO_95_CI_95_TWO_ARROW2" transform="translate(350.0,452.0)">
                <polygon class="sld-arrow-down" points="0,0 10,0 5,10" transform="rotate(180.0,5.0,5.0)"/>
                <polygon class="sld-arrow-up" points="5,0 10,10 0,10" transform="rotate(180.0,5.0,5.0)"/>
                <text class="sld-label" x="15.0" y="5.0">0</text>
            </g>
            <g class="sld-arrow-p sld-down" id="_95_N_95_INTERNAL_95_N_95_CI_95_TWO_95_CI_95_TWO_ARROW1" transform="translate(350.0,432.0)">
                <polygon class="sld-arrow-down" points="0,0 10,0 5,10" transform="rotate(180.0,5.0,5.0)"/>
                <polygon class="sld-arrow-up" points="5,0 10,10 0,10" transform="rotate(180.0,5.0,5.0)"/>
                <text class="sld-label" x="15.0" y="5.0">0</text>
            </g>
            <g class="sld-wire sld-constant-color sld-vl180to300" id="_95_N_95_INTERNAL_95_N_95_9_95_INTERNAL_95_N_95_Shunt_32_10_46_1">
                <polyline points="355.0,361.0,380.0,361.0"/>
            </g>
            <g class="sld-breaker sld-constant-color sld-closed sld-vl180to300" id="idBL" transform="translate(345.0,324.0)">
                <path class="sld-sw-closed" d="M1,1 V19 H19 V1z M10,5 V15"/>
                <path class="sld-sw-open" d="M1,1 V19 H19 V1z M5,10 H15"/>
            </g>
            <g class="sld-disconnector sld-constant-color sld-open sld-vl180to300" id="idAD" transform="translate(351.0,248.0)">
                <path class="sld-sw-closed" d="M0,0 8,8 M8,0 0,8"/>
                <path class="sld-sw-open" d="M8,0 0,8"/>
            </g>
            <g class="sld-disconnector sld-constant-color sld-closed sld-vl180to300" id="idAX" transform="translate(351.0,273.0)">
                <path class="sld-sw-closed" d="M0,0 8,8 M8,0 0,8"/>
                <path class="sld-sw-open" d="M8,0 0,8"/>
            </g>
            <g class="sld-disconnector sld-constant-color sld-closed sld-vl180to300" id="idBN" transform="translate(351.0,384.0)">
                <path class="sld-sw-closed" d="M0,0 8,8 M8,0 0,8"/>
                <path class="sld-sw-open" d="M8,0 0,8"/>
            </g>
        </g>
        <g class="cell idEXTERN_32_9" id="idEXTERN_32_9">
            <g class="sld-node sld-constant-color sld-hidden-node sld-vl180to300" id="idINTERNAL_95_N_95_3" transform="translate(476.0,357.0)">
                <circle cx="4" cy="4" r="4"/>
            </g>
            <g class="sld-node sld-constant-color sld-hidden-node sld-vl180to300" id="idINTERNAL_95_N_95_2" transform="translate(476.0,303.0)">
                <circle cx="4" cy="4" r="4"/>
            </g>
            <g class="sld-node sld-constant-color sld-hidden-node sld-vl180to300" id="idINTERNAL_95_N_95_CE" transform="translate(501.0,411.0)">
                <circle cx="4" cy="4" r="4"/>
            </g>
            <g class="sld-load sld-bottom-feeder sld-constant-color sld-vl180to300" id="idCE" transform="translate(497.0,472.5)">
                <rect height="9" width="16"/>
                <line x1="0" x2="16" y1="0" y2="9"/>
                <line x1="16" x2="0" y1="0" y2="9"/>
                <text class="sld-label" id="CE_S_LABEL" x="-5.0" y="14.0">CE</text>
            </g>
            <g class="sld-node sld-constant-color sld-hidden-node sld-vl180to300" id="idINTERNAL_95_N_95_CJ_95_TWO" transform="translate(451.0,411.0)">
                <circle cx="4" cy="4" r="4"/>
            </g>
            <g class="sld-bottom-feeder sld-constant-color sld-vl180to300" id="idCJ_95_TWO" transform="translate(455.0,477.0)">
                <text class="sld-label" id="CJ_TWO_S_LABEL" x="-5.0" y="5.0">CJ</text>
            </g>
            <g class="sld-wire sld-constant-color sld-vl180to300" id="_95_N_95_BB_95_INTERNAL_95_N_95_3">
                <polyline points="480.0,344.0,480.0,361.0"/>
            </g>
            <g class="sld-wire sld-constant-color sld-vl180to300" id="_95_N_95_INTERNAL_95_N_95_3_95_BD">
                <polyline points="480.0,361.0,505.0,361.0,505.0,378.0"/>
            </g>
            <g class="sld-wire sld-constant-color sld-vl180to300" id="_95_N_95_INTERNAL_95_N_95_3_95_BF">
                <polyline points="480.0,361.0,455.0,361.0,455.0,388.0"/>
            </g>
            <g class="sld-wire sld-constant-color sld-vl180to300" id="_95_N_95_INTERNAL_95_N_95_3_95_INTERNAL_95_N_95_Shunt_32_10_46_2">
                <polyline points="480.0,361.0,430.0,361.0"/>
            </g>
            <g class="sld-wire sld-constant-color sld-vl180to300" id="_95_N_95_INTERNAL_95_N_95_2_95_BB">
                <polyline points="480.0,307.0,480.0,324.0"/>
            </g>
            <g class="sld-wire sld-constant-color sld-vl180to300" id="_95_N_95_AF_95_INTERNAL_95_N_95_2">
                <polyline points="480.0,252.0,480.0,307.0"/>
            </g>
            <g class="sld-wire sld-constant-color sld-vl180to300" id="_95_N_95_AZ_95_INTERNAL_95_N_95_2">
                <polyline points="480.0,277.0,480.0,307.0"/>
            </g>
            <g class="sld-wire sld-constant-color sld-vl180to300" id="_95_N_95_O_95_AF">
                <polyline points="455.0,252.0,480.0,252.0"/>
            </g>
            <g class="sld-wire sld-constant-color sld-vl180to300" id="_95_N_95_P_95_AZ">
                <polyline points="455.0,277.0,480.0,277.0"/>
            </g>
            <g class="sld-wire sld-constant-color sld-vl180to300" id="_95_N_95_BD_95_INTERNAL_95_N_95_CE">
                <polyline points="505.0,398.0,505.0,415.0"/>
            </g>
            <g class="sld-wire sld-constant-color sld-vl180to300" id="_95_N_95_INTERNAL_95_N_95_CE_95_CE">
                <polyline points="505.0,415.0,505.0,472.5"/>
            </g>
            <g class="sld-arrow-q sld-up" id="_95_N_95_INTERNAL_95_N_95_CE_95_CE_ARROW2" transform="translate(500.0,448.75)">
                <polygon class="sld-arrow-down" points="0,0 10,0 5,10" transform="rotate(180.0,5.0,5.0)"/>
                <polygon class="sld-arrow-up" points="5,0 10,10 0,10" transform="rotate(180.0,5.0,5.0)"/>
                <text class="sld-label" x="15.0" y="5.0">50</text>
            </g>
            <g class="sld-arrow-p sld-down" id="_95_N_95_INTERNAL_95_N_95_CE_95_CE_ARROW1" transform="translate(500.0,428.75)">
                <polygon class="sld-arrow-down" points="0,0 10,0 5,10" transform="rotate(180.0,5.0,5.0)"/>
                <polygon class="sld-arrow-up" points="5,0 10,10 0,10" transform="rotate(180.0,5.0,5.0)"/>
                <text class="sld-label" x="15.0" y="5.0">-72</text>
            </g>
            <g class="sld-wire sld-constant-color sld-vl180to300" id="_95_N_95_BF_95_INTERNAL_95_N_95_CJ_95_TWO">
                <polyline points="455.0,388.0,455.0,415.0"/>
            </g>
            <g class="sld-wire sld-constant-color sld-vl180to300" id="_95_N_95_INTERNAL_95_N_95_CJ_95_TWO_95_CJ_95_TWO">
                <polyline points="455.0,415.0,455.0,477.0"/>
            </g>
            <g class="sld-arrow-q sld-down" id="_95_N_95_INTERNAL_95_N_95_CJ_95_TWO_95_CJ_95_TWO_ARROW2" transform="translate(450.0,452.0)">
                <polygon class="sld-arrow-down" points="0,0 10,0 5,10" transform="rotate(180.0,5.0,5.0)"/>
                <polygon class="sld-arrow-up" points="5,0 10,10 0,10" transform="rotate(180.0,5.0,5.0)"/>
                <text class="sld-label" x="15.0" y="5.0">0</text>
            </g>
            <g class="sld-arrow-p sld-down" id="_95_N_95_INTERNAL_95_N_95_CJ_95_TWO_95_CJ_95_TWO_ARROW1" transform="translate(450.0,432.0)">
                <polygon class="sld-arrow-down" points="0,0 10,0 5,10" transform="rotate(180.0,5.0,5.0)"/>
                <polygon class="sld-arrow-up" points="5,0 10,10 0,10" transform="rotate(180.0,5.0,5.0)"/>
                <text class="sld-label" x="15.0" y="5.0">0</text>
            </g>
            <g class="sld-breaker sld-constant-color sld-open sld-vl180to300" id="idBB" transform="translate(470.0,324.0)">
                <path class="sld-sw-closed" d="M1,1 V19 H19 V1z M10,5 V15"/>
                <path class="sld-sw-open" d="M1,1 V19 H19 V1z M5,10 H15"/>
            </g>
            <g class="sld-disconnector sld-constant-color sld-open sld-vl180to300" id="idAF" transform="translate(476.0,248.0)">
                <path class="sld-sw-closed" d="M0,0 8,8 M8,0 0,8"/>
                <path class="sld-sw-open" d="M8,0 0,8"/>
            </g>
            <g class="sld-disconnector sld-constant-color sld-open sld-vl180to300" id="idAZ" transform="translate(476.0,273.0)">
                <path class="sld-sw-closed" d="M0,0 8,8 M8,0 0,8"/>
                <path class="sld-sw-open" d="M8,0 0,8"/>
            </g>
            <g class="sld-breaker sld-constant-color sld-closed sld-vl180to300" id="idBD" transform="translate(495.0,378.0)">
                <path class="sld-sw-closed" d="M1,1 V19 H19 V1z M10,5 V15"/>
                <path class="sld-sw-open" d="M1,1 V19 H19 V1z M5,10 H15"/>
            </g>
            <g class="sld-disconnector sld-constant-color sld-closed sld-vl180to300" id="idBF" transform="translate(451.0,384.0)">
                <path class="sld-sw-closed" d="M0,0 8,8 M8,0 0,8"/>
                <path class="sld-sw-open" d="M8,0 0,8"/>
            </g>
        </g>
        <g class="cell idSHUNT_32_10" id="idSHUNT_32_10">
            <g class="sld-node sld-constant-color sld-hidden-node sld-vl180to300" id="idINTERNAL_95_N_95_9" transform="translate(351.0,357.0)">
                <circle cx="4" cy="4" r="4"/>
            </g>
            <g class="sld-node sld-constant-color sld-hidden-node sld-vl180to300" id="idINTERNAL_95_N_95_Shunt_32_10_46_1" transform="translate(376.0,357.0)">
                <circle cx="4" cy="4" r="4"/>
            </g>
            <g class="sld-node sld-constant-color sld-hidden-node sld-vl180to300" id="idINTERNAL_95_N_95_Shunt_32_10_46_2" transform="translate(426.0,357.0)">
                <circle cx="4" cy="4" r="4"/>
            </g>
            <g class="sld-node sld-constant-color sld-hidden-node sld-vl180to300" id="idINTERNAL_95_N_95_3" transform="translate(476.0,357.0)">
                <circle cx="4" cy="4" r="4"/>
            </g>
            <g class="sld-wire sld-constant-color sld-vl180to300" id="_95_N_95_BL_95_INTERNAL_95_N_95_9">
                <polyline points="355.0,344.0,355.0,361.0"/>
            </g>
            <g class="sld-wire sld-constant-color sld-vl180to300" id="_95_N_95_INTERNAL_95_N_95_9_95_BN">
                <polyline points="355.0,361.0,355.0,388.0"/>
            </g>
            <g class="sld-wire sld-constant-color sld-vl180to300" id="_95_N_95_INTERNAL_95_N_95_9_95_INTERNAL_95_N_95_Shunt_32_10_46_1">
                <polyline points="355.0,361.0,380.0,361.0"/>
            </g>
            <g class="sld-wire sld-constant-color sld-vl180to300" id="_95_N_95_BH_95_INTERNAL_95_N_95_Shunt_32_10_46_1">
                <polyline points="405.0,361.0,380.0,361.0"/>
            </g>
            <g class="sld-wire sld-constant-color sld-vl180to300" id="_95_N_95_BH_95_INTERNAL_95_N_95_Shunt_32_10_46_2">
                <polyline points="405.0,361.0,430.0,361.0"/>
            </g>
            <g class="sld-wire sld-constant-color sld-vl180to300" id="_95_N_95_INTERNAL_95_N_95_3_95_INTERNAL_95_N_95_Shunt_32_10_46_2">
                <polyline points="480.0,361.0,430.0,361.0"/>
            </g>
            <g class="sld-wire sld-constant-color sld-vl180to300" id="_95_N_95_BB_95_INTERNAL_95_N_95_3">
                <polyline points="480.0,344.0,480.0,361.0"/>
            </g>
            <g class="sld-wire sld-constant-color sld-vl180to300" id="_95_N_95_INTERNAL_95_N_95_3_95_BD">
                <polyline points="480.0,361.0,505.0,361.0,505.0,378.0"/>
            </g>
            <g class="sld-wire sld-constant-color sld-vl180to300" id="_95_N_95_INTERNAL_95_N_95_3_95_BF">
                <polyline points="480.0,361.0,455.0,361.0,455.0,388.0"/>
            </g>
            <g class="sld-disconnector sld-constant-color sld-open sld-vl180to300" id="idBH" transform="translate(401.0,357.0)">
                <path class="sld-sw-closed" d="M0,0 8,8 M8,0 0,8" transform="rotate(90.0,4.0,4.0)"/>
                <path class="sld-sw-open" d="M8,0 0,8" transform="rotate(90.0,4.0,4.0)"/>
            </g>
        </g>
        <g class="sld-wire sld-constant-color sld-vl180to300" id="idCJ">
            <polyline points="115.0,424.0,115.0,562.0,455.0,562.0,455.0,477.0"/>
        </g>
        <g class="sld-wire sld-constant-color sld-vl180to300" id="idEDGE_95_CI_95_ONE">
            <polyline points="65.0,80.0,65.0,20.0,160.0,20.0,160.0,270.5"/>
        </g>
        <g class="sld-wire sld-constant-color sld-vl180to300" id="idEDGE_95_CI_95_TWO">
            <polyline points="355.0,477.0,355.0,537.0,160.0,537.0,160.0,286.5"/>
        </g>
        <g class="sld-two-wt sld-constant-color" id="idCI" transform="translate(155.0,271.0)">
            <circle class="sld-vl180to300" cx="5" cy="10" r="5" transform="rotate(180.0,5.0,7.5)"/>
            <circle class="sld-vl180to300" cx="5" cy="5" r="5" transform="rotate(180.0,5.0,7.5)"/>
        </g>
        <g id="LABEL_VL_C">
            <text class="sld-graph-label" x="40.0" y="60.0">C</text>
        </g>
        <g id="LABEL_VL_N">
            <text class="sld-graph-label" x="180.0" y="60.0">N</text>
        </g>
    </g>
</svg>
