<?xml version="1.0" encoding="UTF-8" standalone="no"?>
<svg viewBox="0 0 180.0 504.0" xmlns="http://www.w3.org/2000/svg">
    <style>
        <![CDATA[
.sld-up .sld-arrow-down {visibility: hidden}
.sld-down .sld-arrow-up {visibility: hidden}
.sld-closed .sld-sw-open {visibility: hidden}
.sld-open .sld-sw-closed {visibility: hidden}
.sld-hidden-node {visibility: hidden}
polyline {fill: none}
.sld-top-feeder .sld-label {dominant-baseline: auto}
.sld-bottom-feeder .sld-label {dominant-baseline: hanging}
.sld-arrow-p .sld-label {dominant-baseline: middle}
.sld-arrow-q .sld-label {dominant-baseline: middle}
.sld-constant-color {stroke: lightgrey}
.sld-vl300to500 {stroke: #ff0000}
.sld-vl180to300 {stroke: #228b22}
.sld-vl120to180 {stroke: #01afaf}
.sld-vl70to120 {stroke: #cc5500}
.sld-vl50to70 {stroke: #a020f0}
.sld-vl30to50 {stroke: #ff8290}
.sld-vl0to30 {stroke: #abae28}.sld-feeder-disconnected {stroke: black}
.sld-feeder-connected-disconnected {stroke-dasharray: 3,3}
.sld-feeder-disconnected-connected {stroke: black; stroke-dasharray: 3,3}
.sld-constant-color {fill: none}
.sld-node.sld-constant-color {stroke: none; fill: black}
.sld-breaker.sld-constant-color {stroke: blue; fill: white}
.sld-disconnector.sld-constant-color {stroke: black}
.sld-label {fill: black; stroke: none;}
.sld-busbar-section {stroke-width: 3}
.sld-breaker {stroke-width: 2; fill:white}
.sld-disconnector {stroke-width: 3}
.sld-bus-connection {stroke-width: 4}
.sld-vsc {font-size: 7.43px}
.sld-grid {stroke: #003700; stroke-dasharray: 1,10}
.sld-arrow-p {fill:black}
.sld-arrow-q {fill:blue}
.sld-label {font: 8px "Verdana"}
.sld-graph-label {font: 12px "Verdana"}
.sld-flash {stroke: none; fill: black}
.sld-lock {stroke: none; fill: black}

]]>
    </style>
    <g>
        <g class="sld-busbar-section sld-constant-color sld-vl180to300" id="idD" transform="translate(52.5,252.0)">
            <line x1="0" x2="75.0" y1="0" y2="0"/>
            <text class="sld-label" id="D_NW_LABEL" x="-5.0" y="-5.0">E</text>
        </g>
        <g class="cell idEXTERN_32_0" id="idEXTERN_32_0">
            <g class="sld-node sld-constant-color sld-hidden-node sld-vl180to300" id="idINTERNAL_95_C_95_F" transform="translate(61.0,218.0)">
                <circle cx="4" cy="4" r="4"/>
            </g>
            <g class="sld-node sld-constant-color sld-hidden-node sld-vl180to300" id="idINTERNAL_95_C_95_CI_95_ONE" transform="translate(61.0,138.0)">
                <circle cx="4" cy="4" r="4"/>
            </g>
            <g class="sld-pst sld-top-feeder sld-constant-color" id="idCI_95_ONE" transform="translate(58.0,71.5)">
                <circle class="sld-vl180to300" cx="7" cy="12" r="5"/>
                <g class="sld-vl180to300">
                            
                    <circle cx="7" cy="7" r="5"/>
                            
                    <line x1="14" x2="0" y1="0" y2="14"/>
                            
                    <line x1="14" x2="11" y1="0" y2="0"/>
                            
                    <line x1="14" x2="14" y1="0" y2="3"/>
                        
                </g>
                <text class="sld-label" id="CI_ONE_N_LABEL" x="-5.0" y="-5.0">CI</text>
            </g>
            <g class="sld-wire sld-constant-color sld-vl180to300" id="_95_C_95_D_95_F">
                <polyline points="65.0,252.0,65.0,252.0"/>
            </g>
            <g class="sld-wire sld-constant-color sld-vl180to300" id="_95_C_95_F_95_INTERNAL_95_C_95_F">
                <polyline points="65.0,252.0,65.0,222.0"/>
            </g>
            <g class="sld-wire sld-constant-color sld-vl180to300" id="_95_C_95_J_95_INTERNAL_95_C_95_F">
                <polyline points="65.0,192.0,65.0,222.0"/>
            </g>
            <g class="sld-wire sld-constant-color sld-vl180to300" id="_95_C_95_J_95_INTERNAL_95_C_95_CI_95_ONE">
                <polyline points="65.0,172.0,65.0,142.0"/>
            </g>
            <g class="sld-wire sld-constant-color sld-vl180to300" id="_95_C_95_INTERNAL_95_C_95_CI_95_ONE_95_CI_95_ONE">
                <polyline points="65.0,142.0,65.0,89.0"/>
            </g>
            <g class="sld-arrow-p sld-down" id="_95_C_95_INTERNAL_95_C_95_CI_95_ONE_95_CI_95_ONE_ARROW1" transform="translate(60.0,100.5)">
                <polygon class="sld-arrow-down" points="0,0 10,0 5,10"/>
                <polygon class="sld-arrow-up" points="5,0 10,10 0,10"/>
                <text class="sld-label" x="15.0" y="5.0">0</text>
            </g>
            <g class="sld-arrow-q sld-down" id="_95_C_95_INTERNAL_95_C_95_CI_95_ONE_95_CI_95_ONE_ARROW2" transform="translate(60.0,120.5)">
                <polygon class="sld-arrow-down" points="0,0 10,0 5,10"/>
                <polygon class="sld-arrow-up" points="5,0 10,10 0,10"/>
                <text class="sld-label" x="15.0" y="5.0">0</text>
            </g>
            <g class="sld-disconnector sld-constant-color sld-closed sld-vl180to300" id="idF" transform="translate(61.0,248.0)">
                <path class="sld-sw-closed" d="M0,0 8,8 M8,0 0,8"/>
                <path class="sld-sw-open" d="M8,0 0,8"/>
            </g>
            <g class="sld-breaker sld-constant-color sld-closed sld-vl180to300" id="idJ" transform="translate(55.0,172.0)">
                <path class="sld-sw-closed" d="M1,1 V19 H19 V1z M10,5 V15"/>
                <path class="sld-sw-open" d="M1,1 V19 H19 V1z M5,10 H15"/>
            </g>
        </g>
        <g class="cell idEXTERN_32_1" id="idEXTERN_32_1">
            <g class="sld-node sld-constant-color sld-hidden-node sld-vl180to300" id="idINTERNAL_95_C_95_H" transform="translate(111.0,278.0)">
                <circle cx="4" cy="4" r="4"/>
            </g>
            <g class="sld-node sld-constant-color sld-hidden-node sld-vl180to300" id="idINTERNAL_95_C_95_CJ_95_ONE" transform="translate(111.0,358.0)">
                <circle cx="4" cy="4" r="4"/>
            </g>
            <g class="sld-bottom-feeder sld-constant-color sld-vl180to300" id="idCJ_95_ONE" transform="translate(115.0,424.0)">
                <text class="sld-label" id="CJ_ONE_S_LABEL" x="-5.0" y="5.0">CJ</text>
            </g>
            <g class="sld-wire sld-constant-color sld-vl180to300" id="_95_C_95_D_95_H">
                <polyline points="115.0,252.0,115.0,252.0"/>
            </g>
            <g class="sld-wire sld-constant-color sld-vl180to300" id="_95_C_95_H_95_INTERNAL_95_C_95_H">
                <polyline points="115.0,252.0,115.0,282.0"/>
            </g>
            <g class="sld-wire sld-constant-color sld-vl180to300" id="_95_C_95_L_95_INTERNAL_95_C_95_H">
                <polyline points="115.0,312.0,115.0,282.0"/>
            </g>
            <g class="sld-wire sld-constant-color sld-vl180to300" id="_95_C_95_L_95_INTERNAL_95_C_95_CJ_95_ONE">
                <polyline points="115.0,332.0,115.0,362.0"/>
            </g>
            <g class="sld-wire sld-constant-color sld-vl180to300" id="_95_C_95_INTERNAL_95_C_95_CJ_95_ONE_95_CJ_95_ONE">
                <polyline points="115.0,362.0,115.0,424.0"/>
            </g>
            <g class="sld-arrow-q sld-down" id="_95_C_95_INTERNAL_95_C_95_CJ_95_ONE_95_CJ_95_ONE_ARROW2" transform="translate(110.0,399.0)">
                <polygon class="sld-arrow-down" points="0,0 10,0 5,10" transform="rotate(180.0,5.0,5.0)"/>
                <polygon class="sld-arrow-up" points="5,0 10,10 0,10" transform="rotate(180.0,5.0,5.0)"/>
                <text class="sld-label" x="15.0" y="5.0">0</text>
            </g>
            <g class="sld-arrow-p sld-down" id="_95_C_95_INTERNAL_95_C_95_CJ_95_ONE_95_CJ_95_ONE_ARROW1" transform="translate(110.0,379.0)">
                <polygon class="sld-arrow-down" points="0,0 10,0 5,10" transform="rotate(180.0,5.0,5.0)"/>
                <polygon class="sld-arrow-up" points="5,0 10,10 0,10" transform="rotate(180.0,5.0,5.0)"/>
                <text class="sld-label" x="15.0" y="5.0">0</text>
            </g>
            <g class="sld-disconnector sld-constant-color sld-closed sld-vl180to300" id="idH" transform="translate(111.0,248.0)">
                <path class="sld-sw-closed" d="M0,0 8,8 M8,0 0,8"/>
                <path class="sld-sw-open" d="M8,0 0,8"/>
            </g>
            <g class="sld-breaker sld-constant-color sld-closed sld-vl180to300" id="idL" transform="translate(105.0,312.0)">
                <path class="sld-sw-closed" d="M1,1 V19 H19 V1z M10,5 V15"/>
                <path class="sld-sw-open" d="M1,1 V19 H19 V1z M5,10 H15"/>
            </g>
        </g>
    </g>
</svg>
